<svg width="36" height="36" viewBox="0 0 36 36" fill="none" xmlns="http://www.w3.org/2000/svg">
<path d="M25.5156 0.571045H10.8506C4.48061 0.571045 0.683105 4.36854 0.683105 10.7385V25.386C0.683105 31.7735 4.48061 35.571 10.8506 35.571H25.4981C31.8681 35.571 35.6656 31.7735 35.6656 25.4035V10.7385C35.6831 4.36854 31.8856 0.571045 25.5156 0.571045ZM18.1831 24.861C14.4381 24.861 11.3931 21.816 11.3931 18.071C11.3931 14.326 14.4381 11.281 18.1831 11.281C21.9281 11.281 24.9731 14.326 24.9731 18.071C24.9731 21.816 21.9281 24.861 18.1831 24.861ZM28.5431 9.11104C28.4556 9.32104 28.3331 9.51355 28.1756 9.68855C28.0006 9.84604 27.8081 9.96854 27.5981 10.056C27.3881 10.1435 27.1606 10.196 26.9331 10.196C26.4606 10.196 26.0231 10.021 25.6906 9.68855C25.5331 9.51355 25.4106 9.32104 25.3231 9.11104C25.2356 8.90104 25.1831 8.67354 25.1831 8.44604C25.1831 8.21854 25.2356 7.99104 25.3231 7.78104C25.4106 7.55354 25.5331 7.37854 25.6906 7.20354C26.0931 6.80104 26.7056 6.60854 27.2656 6.73104C27.3881 6.74854 27.4931 6.78355 27.5981 6.83604C27.7031 6.87104 27.8081 6.92354 27.9131 6.99355C28.0006 7.04604 28.0881 7.13354 28.1756 7.20354C28.3331 7.37854 28.4556 7.55354 28.5431 7.78104C28.6306 7.99104 28.6831 8.21854 28.6831 8.44604C28.6831 8.67354 28.6306 8.90104 28.5431 9.11104Z" fill="black"/>
</svg>
