<svg width="31" height="36" viewBox="0 0 31 36" fill="none" xmlns="http://www.w3.org/2000/svg">
<path d="M30.6781 14.7314C30.3921 14.7592 30.105 14.7738 29.8176 14.7751C28.2662 14.7753 26.7391 14.3891 25.3742 13.6515C24.0093 12.9139 22.8496 11.848 21.9998 10.55V24.9374C21.9998 27.0405 21.3761 29.0964 20.2077 30.8451C19.0393 32.5938 17.3785 33.9568 15.4354 34.7616C13.4924 35.5664 11.3543 35.777 9.29158 35.3667C7.22885 34.9564 5.33411 33.9437 3.84696 32.4565C2.35981 30.9694 1.34705 29.0746 0.93675 27.0119C0.526447 24.9492 0.737028 22.8111 1.54187 20.868C2.3467 18.925 3.70965 17.2642 5.45835 16.0958C7.20705 14.9273 9.26297 14.3037 11.3661 14.3037C11.5881 14.3037 11.8051 14.3236 12.0233 14.3373V19.5775C11.8051 19.5513 11.5906 19.5114 11.3661 19.5114C9.92673 19.5114 8.54629 20.0832 7.52849 21.101C6.5107 22.1188 5.9389 23.4992 5.9389 24.9386C5.9389 26.378 6.5107 27.7584 7.52849 28.7762C8.54629 29.794 9.92673 30.3658 11.3661 30.3658C14.364 30.3658 17.0116 28.0039 17.0116 25.0059L17.0639 0.571045H22.0771C22.3062 2.74927 23.2936 4.77768 24.8667 6.30159C26.4399 7.82551 28.4987 8.74796 30.6831 8.90764V14.7314" fill="black"/>
</svg>
