<svg width="41" height="48" viewBox="0 0 41 48" fill="none" xmlns="http://www.w3.org/2000/svg">
<path d="M36.3882 5.29421L23.2571 0.376026C21.8962 -0.125342 19.6759 -0.125342 18.315 0.376026L5.18391 5.29421C2.6532 6.24919 0.599976 9.20965 0.599976 11.9075V31.2459C0.599976 33.1798 1.86533 35.7344 3.41719 36.8804L16.5483 46.6929C18.8641 48.4357 22.6602 48.4357 24.9761 46.6929L38.1071 36.8804C39.659 35.7105 40.9243 33.1798 40.9243 31.2459V11.9075C40.9482 9.20965 38.895 6.24919 36.3882 5.29421ZM35.5048 27.808C35.457 32.7501 34.0962 33.9915 28.9631 33.9915H12.6089C7.38038 33.9915 6.06728 32.7023 6.06728 27.5215V21.9587C6.06728 21.2902 6.59252 20.765 7.26101 20.765H34.3111C34.9795 20.765 35.5048 21.2902 35.5048 21.9587V27.808ZM35.5048 16.9689C35.5048 17.6374 34.9795 18.1627 34.3111 18.1627H7.26101C6.59252 18.1627 6.06728 17.6374 6.06728 16.9689V15.4409C6.06728 10.7615 7.16551 9.2574 11.2481 8.99478C11.6778 8.99478 12.1314 8.97091 12.6089 8.97091H28.9631C34.1917 8.97091 35.5048 10.2601 35.5048 15.4409V16.9689Z" fill="#FFFAFF"/>
</svg>
