<svg width="44" height="37" viewBox="0 0 44 37" fill="none" xmlns="http://www.w3.org/2000/svg">
<path d="M6.27773 0.984813C6.06723 1.34942 6.06723 1.78545 6.27397 2.15382L19.7419 25.4774L18.2759 28.0221L2.0979 0C1.3311 1.6163 -0.897887 4.01444 0.395153 5.88634C1.2033 7.27711 16.9528 34.5738 17.2648 35.1C17.6745 35.8668 18.8698 35.8668 19.2833 35.1L32.879 11.5396H35.8109L21.4371 36.4382C23.215 36.3028 26.4101 37.0321 27.3798 34.9722L42.4415 8.87461C42.9076 8.14539 42.3099 7.09668 41.4416 7.12675H14.2427L12.9083 4.81883H43.4526C42.4565 3.34537 41.4717 0.214249 39.2164 0.405949H7.28134C6.86035 0.405949 6.48822 0.620206 6.27397 0.984813H6.27773ZM22.2904 21.0645L16.7912 11.5434H27.7858L22.2904 21.0645Z" fill="#1277DD"/>
</svg>
