<svg width="238" height="46" viewBox="0 0 238 46" fill="none" xmlns="http://www.w3.org/2000/svg">
<path d="M69.0341 39.8564C65.1295 38.193 62.6088 34.9035 62.5762 30.5889H70.171C71.4849 40.7697 88.1143 32.3967 77.4909 26.8148C75.1239 25.8783 70.0266 24.6156 67.9205 23.5253C62.7346 21.5357 61.1271 14.2298 64.2489 9.72416C70.0359 1.63546 87.4573 3.72288 87.7974 14.9893H79.9976C79.9324 10.9962 74.0476 9.57506 71.3125 11.8488C67.4685 16.1448 72.92 19.3365 77.2626 20.1519C98.0248 24.7227 86.1946 47.0226 69.0341 39.8518V39.8564Z" fill="white"/>
<path d="M120.208 28.8679H99.6973C99.6414 35.4935 109.319 37.9024 112.054 31.957H119.7C117.519 40.3765 106.57 43.6102 99.3152 39.426C92.3727 35.8103 90.7792 25.6063 94.2784 19.0925C102.074 5.80854 123.414 13.0492 120.208 28.8679ZM113.065 24.106C112.995 16.157 100.163 16.171 99.7439 24.106H113.065Z" fill="white"/>
<path d="M136.236 13.5714C137.704 12.7281 139.386 12.304 141.273 12.304V19.7498C136.18 19.391 132.388 20.882 132.663 26.7901V40.7683H125.571V12.7094H132.663V17.0659C133.576 15.5796 134.764 14.4148 136.232 13.5714H136.236Z" fill="white"/>
<path d="M171.913 28.8679H151.403C151.347 35.4935 161.024 37.9024 163.759 31.957H171.405C169.225 40.3765 158.275 43.6102 151.021 39.426C144.078 35.8103 142.485 25.6063 145.984 19.0925C153.779 5.80854 175.119 13.0492 171.913 28.8679ZM164.77 24.106C164.701 16.157 151.869 16.171 151.449 24.106H164.77Z" fill="white"/>
<path d="M200.932 15.4732C205.969 19.6527 203.457 34.8982 204.021 40.769H196.93V25.2719C196.972 21.1297 194.8 18.3387 190.7 18.3341C186.567 18.3341 184.331 21.0924 184.368 25.2719V40.769H177.276V12.7102H184.368V16.2047C188.072 11.2098 196.883 11.0747 200.927 15.4685L200.932 15.4732Z" fill="white"/>
<path d="M215.926 39.4273C200.107 29.0042 213.256 5.22734 230.766 14.0569C246.943 24.4054 233.338 48.2848 215.926 39.4273ZM226.838 34.1109C235.78 28.3239 227.462 12.4308 218.228 20.5893C212.893 26.5254 218.232 38.7889 226.838 34.1109Z" fill="white"/>
<path d="M7.78177 1.22076C7.52084 1.67272 7.52084 2.21322 7.7771 2.66984L24.4717 31.5813L22.6545 34.7357L2.60053 0C1.65001 2.00354 -1.11301 4.97623 0.489825 7.29661C1.49159 9.02058 21.0144 42.8571 21.4012 43.5094C21.909 44.4599 23.3907 44.4599 23.9033 43.5094L40.7563 14.3043H44.3906L26.5731 45.1681C28.777 45.0004 32.7375 45.9043 33.9396 43.351L52.6097 11.0008C53.1875 10.0969 52.4467 8.79692 51.3703 8.8342H17.655L16.0009 5.97334H53.8631C52.6284 4.14686 51.4076 0.265579 48.612 0.503208H9.02583C8.50398 0.503208 8.04269 0.768797 7.7771 1.22076H7.78177ZM27.6308 26.1112L20.8141 14.309H34.4428L27.6308 26.1112Z" fill="white"/>
</svg>
