<?xml version="1.0" encoding="utf-8"?>
<!-- Generator: Adobe Illustrator 24.3.0, SVG Export Plug-In . SVG Version: 6.00 Build 0)  -->
<svg version="1.1" id="Capa_1" xmlns="http://www.w3.org/2000/svg" xmlns:xlink="http://www.w3.org/1999/xlink" x="0px" y="0px"
	 viewBox="0 0 99.3 99.3" style="enable-background:new 0 0 99.3 99.3;" xml:space="preserve">
<style type="text/css">
	.st0{fill:#3C97F2;}
	.st1{fill:url(#SVGID_1_);}
	.st2{fill:#FFFAFF;}
</style>
<g>
	<path class="st0" d="M29.8,0h39.7C86,0,99.3,13.3,99.3,29.8v39.7C99.3,86,86,99.3,69.5,99.3H29.8C13.3,99.3,0,86,0,69.5V29.8
		C0,13.3,13.3,0,29.8,0z"/>
	
		<linearGradient id="SVGID_1_" gradientUnits="userSpaceOnUse" x1="49.6656" y1="139.5905" x2="49.6656" y2="40.2594" gradientTransform="matrix(1 0 0 -1 0 139.5905)">
		<stop  offset="0" style="stop-color:#49A0F9"/>
		<stop  offset="1" style="stop-color:#1277DD"/>
	</linearGradient>
	<path class="st1" d="M29.8,0h39.7C86,0,99.3,13.3,99.3,29.8v39.7C99.3,86,86,99.3,69.5,99.3H29.8C13.3,99.3,0,86,0,69.5V29.8
		C0,13.3,13.3,0,29.8,0z"/>
</g>
<path class="st2" d="M49.9,41.7c3.6,0,6.6,2.6,7,6c0.4,3.4-2.6,6-6.8,6c-4.2,0-7.2-2.6-7-6C43.3,44.3,46.3,41.7,49.9,41.7z M59,37.7
	l3.8,22.1c-0.6-0.2-1.2-0.2-2.2-0.2c-3,0.2-5.4,2.2-5.6,4.4c0,0.6,0,1.2,0.2,1.6h-9.5c0.2-0.4,0.2-1,0.2-1.6
	c-0.4-2.2-2.8-4.2-5.8-4.4c-0.8,0-1.6,0-2.2,0l2.8-21.9h-5l-5.2,27.8c-0.6,3.4,0,6,5,6h30.2c5,0,5.4-2.6,4.6-6l-6.8-27.8H59z
	 M71.5,27.8H27.8c-1.2,0-2,0.8-2,2v9.9c0,1.2,0.8,2,2,2h3l1.8-7.9h34l2.4,7.9h2.6c1.2,0,2-0.8,2-2v-9.9
	C73.5,28.6,72.7,27.8,71.5,27.8z"/>
</svg>
