<svg width="275" height="82" viewBox="0 0 275 82" fill="none" xmlns="http://www.w3.org/2000/svg">
<path d="M264.39 81.4824H10.1689C4.57605 81.4824 0 76.899 0 71.2972V10.1853C0 4.58338 4.57596 0 10.1689 0H264.39C269.983 0 274.559 4.58338 274.559 10.1853V71.2971C274.559 76.899 269.983 81.4824 264.39 81.4824Z" fill="black"/>
<path d="M264.39 0H10.1689C4.57605 0 0 4.58338 0 10.1853V71.2971C0 76.899 4.57596 81.4824 10.1689 81.4824H264.39C269.983 81.4824 274.559 76.899 274.559 71.2972V10.1853C274.559 4.58338 269.983 0 264.39 0ZM264.39 1.6296C269.1 1.6296 272.932 5.4683 272.932 10.1853V71.2971C272.932 76.015 269.1 79.8536 264.39 79.8536H10.1689C5.45952 79.8536 1.62703 76.0149 1.62703 71.2972V10.1853C1.62703 5.4683 5.45942 1.62969 10.1689 1.62969H264.39" fill="#A6A6A6"/>
<path d="M96.4381 20.8662C96.4381 22.5729 95.9335 23.9319 94.923 24.9458C93.775 26.1513 92.279 26.7545 90.4398 26.7545C88.6786 26.7545 87.1811 26.1434 85.9497 24.9195C84.716 23.6965 84.1003 22.1798 84.1003 20.3703C84.1003 18.56 84.716 17.0443 85.9497 15.8203C87.1811 14.5974 88.6786 13.9854 90.4398 13.9854C91.3138 13.9854 92.1505 14.1566 92.9448 14.4979C93.7392 14.8402 94.3764 15.2944 94.8531 15.8633L93.7805 16.9383C92.9727 15.9715 91.8604 15.4885 90.4398 15.4885C89.1554 15.4885 88.0447 15.9406 87.1073 16.8453C86.1697 17.7509 85.7011 18.9253 85.7011 20.3703C85.7011 21.8155 86.1697 22.9898 87.1073 23.8955C88.0447 24.8002 89.1553 25.2522 90.4398 25.2522C91.8025 25.2522 92.9385 24.7977 93.8481 23.8875C94.4385 23.2946 94.7799 22.4703 94.8712 21.4119H90.4397V19.9438H96.353C96.4101 20.2631 96.4379 20.5694 96.4379 20.8662" fill="white"/>
<path d="M96.4383 20.8663H96.2349C96.2332 22.534 95.7469 23.8294 94.7792 24.8018L94.7771 24.8035L94.7762 24.8051C93.6648 25.9691 92.2361 26.5484 90.4399 26.5509C88.7257 26.5484 87.2909 25.9628 86.0927 24.7756C84.8973 23.586 84.3061 22.1337 84.3039 20.3704C84.3061 18.6064 84.8973 17.1549 86.0927 15.9661C87.2909 14.7781 88.7257 14.1916 90.4399 14.1891C91.2877 14.1891 92.0949 14.3548 92.8646 14.685C93.6352 15.0177 94.2439 15.4536 94.6975 15.9949L94.8532 15.8634L94.7095 15.7194L93.6369 16.7951L93.7806 16.9384L93.9372 16.808C93.0918 15.7934 91.9051 15.2819 90.44 15.2849C89.1079 15.2833 87.936 15.7601 86.9667 16.6991C85.988 17.6411 85.4963 18.8816 85.4979 20.3704C85.4963 21.8593 85.988 23.0997 86.9667 24.0419C87.936 24.9809 89.1079 25.4576 90.4399 25.456C91.8477 25.4584 93.0475 24.9801 93.992 24.0316C94.6228 23.3981 94.9804 22.5206 95.0741 21.4295L95.0931 21.2083H90.6433V20.1476H96.3532V19.9439L96.1529 19.9797C96.2085 20.2886 96.2349 20.5821 96.2349 20.8663H96.6415C96.6415 20.5567 96.6129 20.2384 96.5533 19.9075L96.5232 19.7402H90.2367V21.6157H94.8714V21.412L94.6689 21.3945C94.5792 22.4195 94.2534 23.1914 93.7044 23.7437C92.8306 24.6157 91.7581 25.0461 90.44 25.0486C89.2032 25.0469 88.1537 24.6204 87.2488 23.7491C86.3527 22.8809 85.907 21.7725 85.9047 20.3704C85.907 18.9683 86.3527 17.8599 87.2488 16.9918C88.1537 16.1205 89.2031 15.694 90.44 15.6923C91.8153 15.6956 92.8537 16.1507 93.6251 17.0698L93.7681 17.2401L94.9971 16.0075L95.129 15.8755L95.0089 15.7329C94.5092 15.1362 93.8435 14.6626 93.0252 14.3111C92.2054 13.9584 91.3402 13.7817 90.44 13.7817C88.632 13.7802 87.0717 14.4167 85.8061 15.6765C84.5358 16.9337 83.8955 18.5141 83.8973 20.3704C83.8955 22.226 84.5358 23.8072 85.8069 25.0652C87.0717 26.3241 88.632 26.96 90.44 26.9583C92.3229 26.96 93.8849 26.3336 95.0702 25.0867L94.9231 24.9459L95.0669 25.09C96.1204 24.0356 96.6429 22.6112 96.6415 20.8663H96.4383ZM105.813 15.7608H100.255V19.6361H105.267V21.1048H100.255V24.9801H105.813V26.4816H98.6888V14.2593H105.813V15.7608Z" fill="white"/>
<path d="M105.812 15.7609V15.5572H100.052V19.8399H105.063V20.9006L100.052 20.9012V25.1839H105.609V26.278H98.8921V14.4631H105.609V15.7609H105.812H106.016V14.0557H98.4854V26.6854H106.016V24.7765H100.459V21.3086H105.47V19.4325H100.459V15.9646H106.016V15.7609H105.812ZM112.425 26.4818H110.856V15.7608H107.447V14.2593H115.833V15.7608H112.425V26.4816" fill="white"/>
<path d="M112.424 26.4818V26.278H111.059V15.5572H107.651V14.4632H115.629V15.5572H112.221V26.4817H112.424H112.628V15.9646H116.036V14.0557H107.244V15.9645H110.652V26.6853H112.628V26.4816H112.424M121.9 26.4818V14.2593H123.467V26.4816H121.9" fill="white"/>
<path d="M121.9 26.4818H122.103V14.4631H123.264V26.278H121.9V26.4817V26.6854H123.671V14.0557H121.697V26.6854H121.9V26.4817M130.423 26.4818H128.854V15.7608H125.446V14.2593H133.831V15.7608H130.423V26.4816" fill="white"/>
<path d="M130.423 26.4816V26.2778H129.057V15.557H125.649V14.463H133.627V15.557H130.219V26.4815H130.423H130.626V15.9644H134.034V14.0555H125.242V15.9643H128.65V26.6851H130.626V26.4814H130.423M141.915 23.8788C142.818 24.7946 143.923 25.2521 145.23 25.2521C146.537 25.2521 147.643 24.7946 148.545 23.8788C149.449 22.963 149.902 21.7922 149.902 20.3703C149.902 18.9486 149.449 17.7778 148.545 16.862C147.643 15.9461 146.537 15.4885 145.23 15.4885C143.923 15.4885 142.818 15.9461 141.915 16.862C141.013 17.7778 140.561 18.9485 140.561 20.3703C140.561 21.7922 141.013 22.963 141.915 23.8788ZM149.705 24.902C148.505 26.1377 147.013 26.7545 145.23 26.7545C143.446 26.7545 141.955 26.1377 140.758 24.902C139.557 23.6677 138.96 22.1569 138.96 20.3703C138.96 18.5838 139.557 17.0727 140.758 15.8387C141.955 14.6028 143.446 13.9854 145.23 13.9854C147.004 13.9854 148.491 14.6061 149.697 15.8467C150.9 17.0872 151.502 18.595 151.502 20.3703C151.502 22.1569 150.902 23.6677 149.705 24.902Z" fill="white"/>
<path d="M141.915 23.8789L141.771 24.0221C142.707 24.9746 143.876 25.4584 145.23 25.456C146.584 25.4584 147.754 24.9746 148.69 24.0221C149.632 23.0687 150.107 21.8353 150.105 20.3704C150.107 18.9056 149.632 17.6722 148.69 16.7188C147.754 15.7663 146.584 15.2825 145.23 15.2849C143.876 15.2825 142.707 15.7663 141.771 16.7188C140.83 17.6722 140.355 18.9056 140.357 20.3704C140.355 21.8352 140.83 23.0687 141.771 24.0221L141.915 23.8789L142.06 23.7357C141.197 22.8563 140.766 21.7502 140.764 20.3704C140.766 18.9908 141.197 17.8847 142.06 17.0052C142.93 16.1261 143.97 15.6948 145.23 15.6924C146.49 15.6948 147.532 16.1261 148.4 17.0052C149.265 17.8847 149.696 18.9908 149.698 20.3704C149.696 21.7501 149.265 22.8563 148.4 23.7357C147.532 24.6149 146.49 25.0461 145.23 25.0485C143.97 25.0461 142.931 24.6149 142.06 23.7357L141.915 23.8789ZM149.705 24.9021L149.559 24.7606C148.393 25.9573 146.967 26.5485 145.23 26.5509C143.493 26.5484 142.067 25.9573 140.903 24.7606C139.739 23.5597 139.165 22.1115 139.163 20.3704C139.165 18.6293 139.739 17.1812 140.903 15.9804C142.067 14.7836 143.493 14.1916 145.23 14.1892C146.956 14.1916 148.379 14.7861 149.551 15.9891C150.719 17.1955 151.297 18.6413 151.299 20.3704C151.297 22.1115 150.721 23.5597 149.559 24.7606L149.705 24.9021L149.851 25.0436C151.084 23.7754 151.707 22.2022 151.706 20.3704C151.708 18.5491 151.081 16.9791 149.843 15.7052C148.604 14.4263 147.051 13.7795 145.23 13.7817C143.4 13.7795 141.843 14.4232 140.612 15.6973V15.6963C139.376 16.9655 138.755 18.5387 138.757 20.3704C138.755 22.2022 139.376 23.7754 140.612 25.0445L140.617 25.0502L140.612 25.0436C141.843 26.3176 143.4 26.96 145.23 26.9583C147.06 26.96 148.617 26.3176 149.851 25.0436L149.705 24.9021ZM153.703 26.4817V14.2592H155.611L161.542 23.7673H161.609L161.542 21.4119V14.2592H163.111V26.4815H161.474L155.27 16.5126H155.202L155.27 18.8688V26.4815H153.703" fill="white"/>
<path d="M153.703 26.4818H153.906V14.4631H155.498L161.429 23.9712H161.818L161.745 21.4091V14.4632H162.907V26.278H161.587L155.383 16.3091H154.993L155.066 18.8723V26.278H153.703V26.4817V26.6854H155.473V18.8658L155.406 16.5073L155.202 16.5128V16.7165H155.27V16.5128L155.097 16.6211L161.361 26.6854H163.314V14.0557H161.338V21.4145L161.406 23.773L161.609 23.7675V23.5638H161.542V23.7675L161.714 23.6594L155.724 14.0557H153.5V26.6854H153.703V26.4817M217.483 61.1117H221.278V35.6461H217.483L217.483 61.1117ZM251.665 44.8194L247.315 55.86H247.185L242.67 44.8193H238.582L245.352 60.2507L241.492 68.8343H245.452L255.885 44.8193L251.665 44.8194ZM230.144 58.2194C228.899 58.2194 227.166 57.597 227.166 56.0566C227.166 54.091 229.326 53.3376 231.189 53.3376C232.859 53.3376 233.642 53.6979 234.657 54.1899C234.362 56.5483 232.334 58.2194 230.144 58.2194ZM230.601 44.2623C227.853 44.2623 225.008 45.4748 223.831 48.1614L227.199 49.5698C227.919 48.1614 229.259 47.7022 230.666 47.7022C232.629 47.7022 234.624 48.8823 234.657 50.979V51.2409C233.969 50.8477 232.499 50.2581 230.699 50.2581C227.069 50.2581 223.371 52.2561 223.371 55.9912C223.371 59.3987 226.349 61.5939 229.684 61.5939C232.236 61.5939 233.642 60.4473 234.526 59.1042H234.657V61.0696H238.319V51.306C238.319 46.7856 234.951 44.2623 230.601 44.2623ZM207.148 47.9193H201.75V39.1904H207.148C209.985 39.1904 211.596 41.5432 211.596 43.5548C211.596 45.5282 209.985 47.9193 207.148 47.9193ZM207.05 35.6461H197.957V61.1117H201.75V51.4636H207.05C211.256 51.4636 215.391 48.4135 215.391 43.5548C215.391 38.6962 211.256 35.6461 207.05 35.6461ZM157.465 58.2241C154.843 58.2241 152.648 56.0255 152.648 53.0057C152.648 49.9542 154.843 47.7221 157.465 47.7221C160.053 47.7221 162.084 49.9541 162.084 53.0057C162.084 56.0255 160.053 58.2241 157.465 58.2241ZM161.822 46.2453H161.691C160.84 45.2282 159.2 44.3093 157.137 44.3093C152.812 44.3093 148.847 48.116 148.847 53.0057C148.847 57.8629 152.812 61.637 157.137 61.637C159.2 61.637 160.84 60.7178 161.691 59.6683H161.822V60.9152C161.822 64.2303 160.053 66.0024 157.203 66.0024C154.876 66.0024 153.435 64.3281 152.844 62.9172L149.536 64.2955C150.486 66.5927 153.009 69.4153 157.203 69.4153C161.659 69.4153 165.427 66.7892 165.427 60.3901V44.8344H161.822V46.2453ZM168.047 61.1117H171.848V35.6452H168.047V61.1117ZM177.451 52.7105C177.353 49.3628 180.04 47.6568 181.972 47.6568C183.481 47.6568 184.758 48.4111 185.183 49.4951L177.451 52.7105ZM189.246 49.8228C188.526 47.8859 186.33 44.3093 181.841 44.3093C177.385 44.3093 173.683 47.8207 173.683 52.9731C173.683 57.8303 177.353 61.637 182.267 61.637C186.232 61.637 188.526 59.2083 189.476 57.7974L186.527 55.828C185.545 57.2723 184.201 58.2241 182.267 58.2241C180.334 58.2241 178.958 57.3377 178.073 55.5989L189.639 50.8071L189.246 49.8228ZM97.0999 46.9677V50.6431H105.881C105.619 52.7105 104.931 54.22 103.882 55.2703C102.604 56.5506 100.606 57.9615 97.0998 57.9615C91.6935 57.9615 87.4672 53.5968 87.4672 48.1819C87.4672 42.7671 91.6935 38.4018 97.0999 38.4018C100.016 38.4018 102.145 39.5507 103.718 41.0275L106.307 38.4352C104.112 36.3344 101.195 34.7264 97.0999 34.7264C89.6948 34.7264 83.4695 40.765 83.4695 48.1819C83.4695 55.5989 89.6948 61.637 97.0999 61.637C101.097 61.637 104.112 60.3249 106.47 57.8629C108.895 55.4342 109.649 52.0214 109.649 49.265C109.649 48.4111 109.584 47.6242 109.452 46.9677H97.0999ZM119.632 58.2241C117.01 58.2241 114.749 56.058 114.749 52.9731C114.749 49.8553 117.01 47.7221 119.632 47.7221C122.253 47.7221 124.514 49.8553 124.514 52.9731C124.514 56.0581 122.253 58.2241 119.632 58.2241ZM119.632 44.3093C114.848 44.3093 110.948 47.9519 110.948 52.9731C110.948 57.9615 114.848 61.637 119.632 61.637C124.415 61.637 128.314 57.9615 128.314 52.9731C128.314 47.9519 124.415 44.3093 119.632 44.3093ZM138.573 58.2241C135.952 58.2241 133.691 56.058 133.691 52.9731C133.691 49.8553 135.952 47.7221 138.573 47.7221C141.194 47.7221 143.455 49.8553 143.455 52.9731C143.455 56.0581 141.194 58.2241 138.573 58.2241ZM138.573 44.3093C133.789 44.3093 129.89 47.9519 129.89 52.9731C129.89 57.9615 133.789 61.637 138.573 61.637C143.356 61.637 147.255 57.9615 147.255 52.9731C147.255 47.9519 143.356 44.3093 138.573 44.3093Z" fill="white"/>
<path d="M21.3722 15.5045C20.6897 16.1213 20.2823 17.1501 20.2823 18.5156V18.2069V63.2689V62.9721C20.2823 64.2332 20.6317 65.2071 21.2235 65.8344L21.3746 65.9792V65.9798C21.8536 66.4128 22.4678 66.6427 23.1717 66.6419C23.8595 66.6419 24.6334 66.4223 25.4501 65.9585L54.9707 49.1583L65.1109 43.3868C66.3987 42.6541 67.1217 41.7087 67.2425 40.7458V40.7419C67.1217 39.7767 66.3987 38.8321 65.1109 38.0993L54.9699 32.3286L25.4502 15.5283C24.6318 15.0637 23.8573 14.8433 23.1677 14.8433C22.4646 14.8433 21.8512 15.0724 21.3724 15.5045H21.3722Z" fill="#00C1FF"/>
<path d="M21.3747 65.9795L21.2235 65.8347C20.6317 65.2075 20.2823 64.2335 20.2823 62.9724V63.2692V18.2184V18.5159C20.2823 17.1504 20.6897 16.1216 21.3722 15.5048L46.5702 40.743L21.3747 65.9795Z" fill="url(#paint0_linear_44_9)"/>
<path d="M54.9706 49.1582L46.5701 40.7427L54.9699 32.3286L65.1108 38.0992C66.3986 38.8321 67.1215 39.7767 67.2424 40.7419V40.7457C67.1215 41.7087 66.3986 42.6541 65.1108 43.3868L54.9707 49.1581" fill="url(#paint1_linear_44_9)"/>
<path d="M23.1716 66.6421C22.4677 66.6427 21.8535 66.4128 21.3746 65.9799V65.9793L46.5702 40.7428L54.9707 49.1583L25.45 65.9586C24.6333 66.4225 23.8594 66.6421 23.1716 66.6421Z" fill="url(#paint2_linear_44_9)"/>
<path d="M46.5702 40.7432L21.3721 15.505C21.8511 15.0729 22.4644 14.8437 23.1675 14.8437C23.8571 14.8437 24.6316 15.0641 25.45 15.5288L54.9699 32.329L46.5701 40.7432" fill="url(#paint3_linear_44_9)"/>
<path d="M23.1724 66.9404C22.4686 66.9404 21.8535 66.7105 21.3745 66.2776L21.3737 66.2783C21.3717 66.2764 21.3696 66.2745 21.3674 66.2728L21.2364 66.1447C21.2323 66.1406 21.2284 66.136 21.2236 66.1313L21.3746 65.98C21.8536 66.4128 22.4677 66.6428 23.1718 66.642C23.8595 66.642 24.6334 66.4224 25.4501 65.9586L54.9707 49.1583L55.1598 49.3478L54.9683 49.4568L25.45 66.2561C24.7057 66.6787 23.9977 66.899 23.3583 66.9358C23.2963 66.9388 23.2344 66.9404 23.1724 66.9404Z" fill="url(#paint4_linear_44_9)"/>
<path d="M21.2235 66.1313C20.6317 65.5042 20.2823 64.531 20.2823 63.2691V62.9723C20.2823 64.2334 20.6317 65.2073 21.2235 65.8345L21.3746 65.9794L21.2235 66.1313Z" fill="url(#paint5_linear_44_9)"/>
<path d="M55.1597 49.3481L54.9705 49.1585L65.1106 43.3872C66.3985 42.6545 67.1215 41.7091 67.2423 40.7462C67.2423 41.0995 67.1636 41.4528 67.0072 41.7967C66.6917 42.4897 66.0595 43.1446 65.1107 43.6848L55.1597 49.3481" fill="url(#paint6_linear_44_9)"/>
<path d="M67.2423 40.7422C67.1215 39.777 66.3985 38.8324 65.1108 38.0995L54.9697 32.3289L55.1589 32.1394H55.1597L65.1108 37.8027C66.5305 38.6112 67.2415 39.6765 67.2423 40.7422Z" fill="url(#paint7_linear_44_9)"/>
<path d="M20.2823 18.5156V18.2044C20.2823 18.0921 20.2853 17.9823 20.2911 17.8758V17.8709C20.2911 17.8695 20.2911 17.8679 20.2916 17.8663V17.8543C20.3529 16.768 20.6897 15.9207 21.2235 15.3549L21.3722 15.5044C20.6897 16.1213 20.2823 17.1501 20.2823 18.5156Z" fill="url(#paint8_linear_44_9)"/>
<path d="M54.9699 32.3291L25.4501 15.5287C24.6317 15.0641 23.8573 14.8437 23.1676 14.8437C22.4645 14.8437 21.8511 15.0729 21.3722 15.505L21.2236 15.3554C21.27 15.3062 21.3183 15.2587 21.3682 15.213C21.3698 15.2114 21.3722 15.2097 21.3738 15.2082C21.849 14.7794 22.4558 14.5502 23.1526 14.5461H23.1676C23.8573 14.5461 24.6317 14.7665 25.4501 15.2313L55.1598 32.139L55.159 32.1396L54.9699 32.3291Z" fill="url(#paint9_linear_44_9)"/>
<defs>
<linearGradient id="paint0_linear_44_9" x1="36.3854" y1="17.7422" x2="14.6703" y2="39.4922" gradientUnits="userSpaceOnUse">
<stop stop-color="#00A0FF"/>
<stop offset="0.00657" stop-color="#00A1FF"/>
<stop offset="0.2601" stop-color="#00BEFF"/>
<stop offset="0.5122" stop-color="#00D2FF"/>
<stop offset="0.7604" stop-color="#00DFFF"/>
<stop offset="1" stop-color="#00E3FF"/>
</linearGradient>
<linearGradient id="paint1_linear_44_9" x1="68.8114" y1="40.5973" x2="19.6003" y2="40.5973" gradientUnits="userSpaceOnUse">
<stop stop-color="#FFE000"/>
<stop offset="0.4087" stop-color="#FFBD00"/>
<stop offset="0.7754" stop-color="#FFA500"/>
<stop offset="1" stop-color="#FF9C00"/>
</linearGradient>
<linearGradient id="paint2_linear_44_9" x1="50.5108" y1="48.7439" x2="13.713" y2="85.3318" gradientUnits="userSpaceOnUse">
<stop stop-color="#FF3A44"/>
<stop offset="1" stop-color="#C31162"/>
</linearGradient>
<linearGradient id="paint3_linear_44_9" x1="14.8778" y1="11.7633" x2="31.2778" y2="28.0948" gradientUnits="userSpaceOnUse">
<stop stop-color="#32A071"/>
<stop offset="0.0685" stop-color="#2DA771"/>
<stop offset="0.4762" stop-color="#15CF74"/>
<stop offset="0.8009" stop-color="#06E775"/>
<stop offset="1" stop-color="#00F076"/>
</linearGradient>
<linearGradient id="paint4_linear_44_9" x1="50.4925" y1="54.5814" x2="21.023" y2="84.0986" gradientUnits="userSpaceOnUse">
<stop stop-color="#CC2E36"/>
<stop offset="1" stop-color="#9C0E4E"/>
</linearGradient>
<linearGradient id="paint5_linear_44_9" x1="23.639" y1="17.7421" x2="4.50837" y2="36.9039" gradientUnits="userSpaceOnUse">
<stop stop-color="#008DE0"/>
<stop offset="0.00657" stop-color="#008DE0"/>
<stop offset="0.2601" stop-color="#00A7E0"/>
<stop offset="0.5122" stop-color="#00B8E0"/>
<stop offset="0.7604" stop-color="#00C4E0"/>
<stop offset="1" stop-color="#00C7E0"/>
</linearGradient>
<linearGradient id="paint6_linear_44_9" x1="68.8114" y1="40.7443" x2="19.6001" y2="40.7443" gradientUnits="userSpaceOnUse">
<stop stop-color="#E0C500"/>
<stop offset="0.4087" stop-color="#E0A600"/>
<stop offset="0.7754" stop-color="#E09100"/>
<stop offset="1" stop-color="#E08900"/>
</linearGradient>
<linearGradient id="paint7_linear_44_9" x1="68.8114" y1="40.7442" x2="19.6003" y2="40.7442" gradientUnits="userSpaceOnUse">
<stop stop-color="#FFE840"/>
<stop offset="0.4087" stop-color="#FFCE40"/>
<stop offset="0.7754" stop-color="#FFBC40"/>
<stop offset="1" stop-color="#FFB540"/>
</linearGradient>
<linearGradient id="paint8_linear_44_9" x1="23.6183" y1="17.7765" x2="5.19207" y2="35.433" gradientUnits="userSpaceOnUse">
<stop stop-color="#40B8FF"/>
<stop offset="0.00657" stop-color="#40B9FF"/>
<stop offset="0.2601" stop-color="#40CEFF"/>
<stop offset="0.5122" stop-color="#40DDFF"/>
<stop offset="0.7604" stop-color="#40E7FF"/>
<stop offset="1" stop-color="#40EAFF"/>
</linearGradient>
<linearGradient id="paint9_linear_44_9" x1="14.8412" y1="17.1007" x2="28.0006" y2="30.2815" gradientUnits="userSpaceOnUse">
<stop stop-color="#65B895"/>
<stop offset="0.0685" stop-color="#62BD95"/>
<stop offset="0.4762" stop-color="#50DB97"/>
<stop offset="0.8009" stop-color="#44ED98"/>
<stop offset="1" stop-color="#40F498"/>
</linearGradient>
</defs>
</svg>
