<?xml version="1.0" encoding="utf-8"?>
<!-- Generator: Adobe Illustrator 24.3.0, SVG Export Plug-In . SVG Version: 6.00 Build 0)  -->
<svg version="1.1" id="Capa_1" xmlns="http://www.w3.org/2000/svg" xmlns:xlink="http://www.w3.org/1999/xlink" x="0px" y="0px"
	 viewBox="0 0 99.3 99.3" style="enable-background:new 0 0 99.3 99.3;" xml:space="preserve">
<style type="text/css">
	.st0{fill:#3C97F2;}
	.st1{fill:url(#SVGID_1_);}
	.st2{fill:#FFFFFF;}
	.st3{fill:#E6E6E6;}
</style>
<g>
	<path class="st0" d="M29.8,0h39.7c16.5,0,29.8,13.3,29.8,29.8v39.7c0,16.5-13.3,29.8-29.8,29.8H29.8C13.3,99.3,0,86,0,69.5V29.8
		C0,13.3,13.3,0,29.8,0z"/>
	
		<linearGradient id="SVGID_1_" gradientUnits="userSpaceOnUse" x1="49.639" y1="139.5905" x2="49.639" y2="40.2594" gradientTransform="matrix(1 0 0 -1 0 139.5905)">
		<stop  offset="0" style="stop-color:#49A0F9"/>
		<stop  offset="1" style="stop-color:#1277DD"/>
	</linearGradient>
	<path class="st1" d="M29.8,0h39.7c16.5,0,29.8,13.3,29.8,29.8v39.7c0,16.5-13.3,29.8-29.8,29.8H29.8C13.3,99.3,0,86,0,69.5V29.8
		C0,13.3,13.3,0,29.8,0z"/>
</g>
<path class="st2" d="M34.6,30.4c5.3-0.8,10.8,0.6,15,3.9c-0.8,0.7-1.6,1.3-2.3,2.1c-2.8,3-4.7,6.8-5.1,10.8
	c-0.5,3.8,0.3,7.8,2.2,11.2c1.3,2.3,3.1,4.3,5.2,6c-2.9,2.2-6.4,3.6-10,4c-2.3,0.3-4.6,0.1-6.8-0.4c-3.9-0.9-7.5-3.1-10.2-6.1
	c-2.3-2.6-3.9-5.9-4.5-9.3c-0.4-2.1-0.4-4.2,0-6.3c0.7-4.3,3-8.3,6.4-11.2C27.3,32.6,30.9,30.9,34.6,30.4z"/>
<path class="st2" d="M49.7,34.3c3.1-2.3,6.8-3.8,10.7-4c5.6-0.4,11.3,1.7,15.3,5.6c2.5,2.4,4.3,5.5,5.2,8.9
	c1.2,4.5,0.5,9.5-1.7,13.6c-2.3,4.2-6.2,7.4-10.7,9c-2.9,1-6,1.3-9,1c-3.5-0.4-6.9-1.8-9.7-3.9c2.9-2.3,5.2-5.3,6.4-8.8
	c1.4-3.9,1.4-8.1,0.1-12c-0.9-2.7-2.4-5.2-4.4-7.3C51.1,35.5,50.4,34.9,49.7,34.3z"/>
<path class="st3" d="M49.6,34.3L49.6,34.3c0.8,0.6,1.5,1.2,2.2,1.9c2,2.1,3.5,4.6,4.4,7.3c1.3,3.9,1.2,8.2-0.1,12
	c-1.2,3.5-3.5,6.5-6.4,8.8l0,0c-2.1-1.6-3.9-3.7-5.2-6c-1.9-3.4-2.7-7.3-2.2-11.2c0.4-4,2.3-7.9,5.1-10.8
	C48,35.6,48.8,34.9,49.6,34.3z"/>
</svg>
