<svg width="34" height="35" viewBox="0 0 34 35" fill="none" xmlns="http://www.w3.org/2000/svg">
<path d="M17.2 0.733276C7.99666 0.733276 0.46666 8.26328 0.46666 17.4666C0.46666 26.6699 7.99666 34.1999 17.2 34.1999C26.4033 34.1999 33.9333 26.6699 33.9333 17.4666C33.9333 8.26328 26.4033 0.733276 17.2 0.733276ZM25.3993 10.9406L22.5547 24.6619C22.3873 25.6659 21.718 25.8333 21.0487 25.3313L16.698 21.9846C15.694 22.9886 14.69 23.8253 14.5227 24.1599C14.188 24.3273 14.0207 24.6619 13.686 24.6619C13.184 24.6619 13.184 24.3273 13.0167 23.9926L11.5107 18.9726L6.99266 17.4666C5.98866 17.1319 5.98866 16.4626 7.15999 15.9606L24.228 9.43461C24.8973 9.26728 25.734 9.60194 25.3993 10.9406ZM21.3833 12.4466L11.8453 18.4706L13.3513 23.4906L13.686 20.1439L21.8853 12.7813C22.3873 12.2793 22.0527 12.2793 21.3833 12.4466Z" fill="#1277DD"/>
</svg>
