<svg width="41" height="41" viewBox="0 0 41 41" fill="none" xmlns="http://www.w3.org/2000/svg">
<g clip-path="url(#clip0_44_124)">
<path d="M20.2 3.73328C10.9967 3.73328 3.46666 11.2633 3.46666 20.4666C3.46666 29.6699 10.9967 37.1999 20.2 37.1999C29.4033 37.1999 36.9333 29.6699 36.9333 20.4666C36.9333 11.2633 29.4033 3.73328 20.2 3.73328ZM28.3993 13.9406L25.5547 27.6619C25.3873 28.6659 24.718 28.8333 24.0487 28.3313L19.698 24.9846C18.694 25.9886 17.69 26.8253 17.5227 27.1599C17.188 27.3273 17.0207 27.6619 16.686 27.6619C16.184 27.6619 16.184 27.3273 16.0167 26.9926L14.5107 21.9726L9.99266 20.4666C8.98866 20.1319 8.98866 19.4626 10.16 18.9606L27.228 12.4346C27.8973 12.2673 28.734 12.6019 28.3993 13.9406ZM24.3833 15.4466L14.8453 21.4706L16.3513 26.4906L16.686 23.1439L24.8853 15.7813C25.3873 15.2793 25.0527 15.2793 24.3833 15.4466Z" fill="#1277DD"/>
</g>
<defs>
<clipPath id="clip0_44_124">
<rect width="40.16" height="40.16" fill="white" transform="translate(0.119995 0.386658)"/>
</clipPath>
</defs>
</svg>
