<svg width="21" height="17" viewBox="0 0 21 17" fill="none" xmlns="http://www.w3.org/2000/svg">
<path d="M21 2.0101C20.2283 2.35362 19.3983 2.58283 18.5228 2.69128C19.4129 2.16017 20.0977 1.3131 20.419 0.312448C19.5861 0.803103 18.6634 1.16362 17.6817 1.35355C16.8978 0.518207 15.7796 0 14.5407 0C12.1609 0 10.232 1.92159 10.232 4.29103C10.232 4.62634 10.2711 4.95286 10.3446 5.27C6.76435 5.08945 3.58895 3.3789 1.46463 0.783173C1.09133 1.41745 0.881343 2.16017 0.881343 2.94393C0.881343 4.43348 1.6402 5.74483 2.79743 6.51745C2.09108 6.49576 1.42613 6.29821 0.844013 5.98166C0.844013 5.99455 0.844013 6.0139 0.844013 6.03207C0.844013 8.11369 2.32964 9.8471 4.29881 10.2416C3.93892 10.3407 3.55862 10.3958 3.16665 10.3958C2.88843 10.3958 2.6172 10.3641 2.35472 10.3167C2.90301 12.0178 4.49363 13.2612 6.37822 13.2981C4.90367 14.4471 3.0465 15.1353 1.02716 15.1353C0.67836 15.1353 0.337139 15.1153 0 15.0743C1.90792 16.2883 4.1734 17 6.60512 17C14.529 17 18.864 10.4603 18.864 4.78697C18.864 4.60114 18.8582 4.4159 18.8494 4.233C19.6952 3.63272 20.4243 2.87534 21 2.0101Z" fill="#FFFAFF"/>
</svg>
