<svg width="40" height="22" viewBox="0 0 40 22" fill="none" xmlns="http://www.w3.org/2000/svg">
<path d="M1.88288 3.25257C1.88288 3.01896 2.00056 2.72693 2.17708 2.55172C2.58896 2.14289 3.23621 2.14289 3.64809 2.49332L19.4172 17.2112C19.7114 17.5032 20.241 17.5032 20.594 17.2112L36.3632 2.49332C36.775 2.08449 37.4223 2.14289 37.8342 2.55172C38.246 2.96055 38.1872 3.603 37.7753 4.01183L22.0062 18.7297C20.8882 19.7226 19.123 19.7226 18.0639 18.7297L2.23592 4.01183C2.00056 3.77821 1.88288 3.54459 1.88288 3.25257Z" fill="#1277DD"/>
<path fill-rule="evenodd" clip-rule="evenodd" d="M4.90635 1.10228L20.0056 15.195L35.0569 1.14711C36.3384 -0.0969363 38.168 0.240016 39.1656 1.23017C40.4481 2.50325 40.1108 4.33672 39.1067 5.33335L39.0658 5.37401L23.2621 20.1229C21.4503 21.732 18.578 21.7793 16.7741 20.0913C16.7731 20.0903 16.7751 20.0922 16.7741 20.0913L0.903812 5.33405C0.411049 4.84493 -1.6683e-07 4.16012 -1.27159e-07 3.25255C-9.55276e-08 2.52892 0.312042 1.75985 0.845684 1.23016C1.97881 0.105433 3.74229 0.111913 4.87345 1.0743L4.90635 1.10228ZM18.0639 18.7297C19.123 19.7226 20.8882 19.7226 22.0062 18.7297L37.7753 4.01183C38.1872 3.603 38.246 2.96055 37.8342 2.55172C37.4223 2.14289 36.775 2.08449 36.3632 2.49332L20.594 17.2112C20.241 17.5032 19.7114 17.5032 19.4172 17.2112L3.64809 2.49332C3.23621 2.14289 2.58896 2.14289 2.17708 2.55172C2.00056 2.72693 1.88288 3.01896 1.88288 3.25257C1.88288 3.54459 2.00056 3.77821 2.23592 4.01183L18.0639 18.7297Z" fill="#1277DD"/>
</svg>
