<svg width="41" height="21" viewBox="0 0 41 21" fill="none" xmlns="http://www.w3.org/2000/svg">
<path d="M2.75788 18.0909C2.75788 18.3245 2.87556 18.6166 3.05208 18.7918C3.46396 19.2006 4.11121 19.2006 4.52309 18.8502L20.2922 4.1323C20.5864 3.84028 21.116 3.84028 21.469 4.1323L37.2382 18.8502C37.65 19.259 38.2973 19.2006 38.7092 18.7918C39.121 18.383 39.0622 17.7405 38.6503 17.3317L22.8812 2.61379C21.7632 1.62092 19.998 1.62092 18.9389 2.61379L3.11092 17.3317C2.87556 17.5653 2.75788 17.7989 2.75788 18.0909Z" fill="#1277DD"/>
<path fill-rule="evenodd" clip-rule="evenodd" d="M5.78135 20.2412L20.8806 6.14854L35.9319 20.1964C37.2134 21.4404 39.043 21.1035 40.0406 20.1133C41.3231 18.8403 40.9858 17.0068 39.9817 16.0102L39.9408 15.9695L24.1371 1.22058C22.3253 -0.388478 19.453 -0.435773 17.6491 1.25225C17.6481 1.25319 17.6501 1.25131 17.6491 1.25225L1.77881 16.0095C1.28605 16.4986 0.875 17.1834 0.875 18.091C0.875 18.8146 1.18704 19.5837 1.72068 20.1133C2.85381 21.2381 4.61729 21.2316 5.74845 20.2692L5.78135 20.2412ZM18.9389 2.61379C19.998 1.62092 21.7632 1.62092 22.8812 2.61379L38.6503 17.3317C39.0622 17.7405 39.121 18.383 38.7092 18.7918C38.2973 19.2006 37.65 19.259 37.2382 18.8502L21.469 4.1323C21.116 3.84028 20.5864 3.84028 20.2922 4.1323L4.52309 18.8502C4.11121 19.2006 3.46396 19.2006 3.05208 18.7918C2.87556 18.6166 2.75788 18.3245 2.75788 18.0909C2.75788 17.7989 2.87556 17.5653 3.11092 17.3317L18.9389 2.61379Z" fill="#1277DD"/>
</svg>
