<?xml version="1.0" encoding="utf-8"?>
<!-- Generator: Adobe Illustrator 24.3.0, SVG Export Plug-In . SVG Version: 6.00 Build 0)  -->
<svg version="1.1" id="Capa_1" xmlns="http://www.w3.org/2000/svg" xmlns:xlink="http://www.w3.org/1999/xlink" x="0px" y="0px"
	 viewBox="0 0 99.3 99.3" style="enable-background:new 0 0 99.3 99.3;" xml:space="preserve">
<style type="text/css">
	.st0{fill:#3C97F2;}
	.st1{fill:url(#SVGID_1_);}
	.st2{fill:#FFFFFF;}
</style>
<g>
	<path class="st0" d="M29.8,0h39.7C86,0,99.3,13.3,99.3,29.8v39.7C99.3,86,86,99.3,69.5,99.3H29.8C13.3,99.3,0,86,0,69.5V29.8
		C0,13.3,13.3,0,29.8,0z"/>
	
		<linearGradient id="SVGID_1_" gradientUnits="userSpaceOnUse" x1="49.6656" y1="139.2761" x2="49.6656" y2="39.945" gradientTransform="matrix(1 0 0 -1 0 139.2761)">
		<stop  offset="0" style="stop-color:#49A0F9"/>
		<stop  offset="1" style="stop-color:#1277DD"/>
	</linearGradient>
	<path class="st1" d="M29.8,0h39.7C86,0,99.3,13.3,99.3,29.8v39.7C99.3,86,86,99.3,69.5,99.3H29.8C13.3,99.3,0,86,0,69.5V29.8
		C0,13.3,13.3,0,29.8,0z"/>
</g>
<path class="st2" d="M36.7,37.3h27c1.1,0,1.9-0.9,1.9-1.9v-4.8c0-1.1-0.9-1.9-1.9-1.9h-27c-1.1,0-1.9,0.9-1.9,1.9v4.8
	C34.7,36.4,35.6,37.3,36.7,37.3z"/>
<path class="st2" d="M35.7,68.1h27.9c1.1,0,1.9-0.9,1.9-1.9v-4.8c0-1.1-0.9-1.9-1.9-1.9H35.7c-1.1,0-1.9,0.9-1.9,1.9v4.8
	C33.8,67.2,34.6,68.1,35.7,68.1z"/>
<path class="st2" d="M45.8,22.8v11.6c0,0.5,0.4,1,1,1h6.7c0.5,0,1-0.4,1-1V22.8c0-0.5-0.4-1-1-1h-6.7C46.2,21.9,45.8,22.3,45.8,22.8
	z"/>
<path class="st2" d="M45.8,63.3v11.6c0,0.5,0.4,1,1,1h6.7c0.5,0,1-0.4,1-1V63.3c0-0.5-0.4-1-1-1h-6.7C46.2,62.3,45.8,62.7,45.8,63.3
	z"/>
<path class="st2" d="M34.9,61.2h10.4l19.8-24.7c0.3-0.4,0-1.1-0.5-1.1H54L34.3,60C33.9,60.5,34.2,61.2,34.9,61.2z"/>
</svg>
