<svg width="98" height="20" viewBox="0 0 98 20" fill="none" xmlns="http://www.w3.org/2000/svg">
<path d="M28.4258 16.9869C26.818 16.302 25.7801 14.9475 25.7666 13.1709H28.8939C29.435 17.363 36.2823 13.9153 31.908 11.6168C30.9333 11.2312 28.8344 10.7113 27.9672 10.2623C25.8319 9.44309 25.17 6.43477 26.4554 4.57951C28.8383 1.24887 36.0118 2.1084 36.1519 6.7475H32.9402C32.9133 5.10329 30.4902 4.51812 29.364 5.45438C27.7811 7.22331 30.0259 8.53753 31.814 8.87328C40.3631 10.7554 35.4919 19.9377 28.4258 16.985V16.9869Z" fill="#05103F"/>
<path d="M49.4974 12.4622H41.0519C41.0289 15.1904 45.0137 16.1823 46.1399 13.7342H49.2883C48.3904 17.2011 43.8818 18.5326 40.8946 16.8097C38.0359 15.3209 37.3797 11.1192 38.8206 8.43707C42.0304 2.96723 50.8174 5.94868 49.4974 12.4622ZM46.5563 10.5015C46.5275 7.22837 41.2437 7.23412 41.0711 10.5015H46.5563Z" fill="#05103F"/>
<path d="M56.0973 6.16394C56.7017 5.81668 57.3943 5.64209 58.1713 5.64209V8.70797C56.0743 8.56024 54.5126 9.17418 54.6258 11.6069V17.3626H51.7057V5.809H54.6258V7.60287C55.0018 6.99085 55.4911 6.5112 56.0954 6.16394H56.0973Z" fill="#05103F"/>
<path d="M70.7879 12.4622H62.3423C62.3193 15.1904 66.3042 16.1823 67.4304 13.7342H70.5787C69.6809 17.2011 65.1722 18.5326 62.185 16.8097C59.3263 15.3209 58.6702 11.1192 60.111 8.43707C63.3208 2.96723 72.1079 5.94868 70.7879 12.4622ZM67.8467 10.5015C67.8179 7.22837 62.5342 7.23412 62.3615 10.5015H67.8467Z" fill="#05103F"/>
<path d="M82.7367 6.94675C84.8107 8.66771 83.7766 14.9453 84.0087 17.3627H81.0887V10.9815C81.1059 9.27589 80.2119 8.12667 78.5235 8.12475C76.8218 8.12475 75.9008 9.26055 75.9162 10.9815V17.3627H72.9961V5.80904H75.9162V7.24796C77.4414 5.19126 81.0695 5.13562 82.7348 6.94483L82.7367 6.94675Z" fill="#05103F"/>
<path d="M88.9107 16.8102C82.3971 12.5183 87.8113 2.72788 95.0213 6.36357C101.683 10.6247 96.0804 20.4574 88.9107 16.8102ZM93.4039 14.6211C97.0857 12.2382 93.661 5.69399 89.8584 9.05341C87.6617 11.4977 89.8603 16.5473 93.4039 14.6211Z" fill="#05103F"/>
<path d="M3.20426 1.07835C3.09682 1.26445 3.09681 1.48701 3.20234 1.67503L10.0766 13.5798L9.32834 14.8786L1.07081 0.575684C0.679417 1.40067 -0.458296 2.62472 0.201693 3.58017C0.614185 4.29004 8.653 18.2227 8.81224 18.4913C9.02137 18.8827 9.63147 18.8827 9.84251 18.4913L16.782 6.4657H18.2785L10.9419 19.1743C11.8493 19.1052 13.4801 19.4775 13.9751 18.4261L21.6628 5.10543C21.9007 4.73323 21.5957 4.19795 21.1525 4.21329H7.26971L6.58862 3.03529H22.1789C21.6705 2.28321 21.1678 0.68504 20.0167 0.782887H3.71652C3.50164 0.782887 3.31169 0.892247 3.20234 1.07835H3.20426ZM11.3774 11.3274L8.5705 6.46762H14.1823L11.3774 11.3274Z" fill="#1277DD"/>
</svg>
