<?xml version="1.0" encoding="UTF-8"?>
<svg id="_Слой_1" data-name="Слой 1" xmlns="http://www.w3.org/2000/svg" viewBox="0 0 1300 900">
  <defs>
    <style>
      .cls-1 {
        fill: #05103f;
      }

      .cls-2 {
        fill: #1277dd;
      }
    </style>
  </defs>
  <g>
    <path class="cls-1" d="m542.77,487.04c-8.38-3.57-13.79-10.63-13.86-19.89h16.3c2.82,21.85,38.51,3.88,15.71-8.1-5.08-2.01-16.02-4.72-20.54-7.06-11.13-4.27-14.58-19.95-7.88-29.62,12.42-17.36,49.81-12.88,50.54,11.3h-16.74c-.14-8.57-12.77-11.62-18.64-6.74-8.25,9.22,3.45,16.07,12.77,17.82,44.56,9.81,19.17,57.67-17.66,42.28Z"/>
    <path class="cls-1" d="m652.6,463.46h-44.02c-.12,14.22,20.65,19.39,26.52,6.63h16.41c-4.68,18.07-28.18,25.01-43.75,16.03-14.9-7.76-18.32-29.66-10.81-43.64,16.73-28.51,62.53-12.97,55.65,20.98Zm-15.33-10.22c-.15-17.06-27.69-17.03-28.59,0h28.59Z"/>
    <path class="cls-1" d="m687,430.63c3.15-1.81,6.76-2.72,10.81-2.72v15.98c-10.93-.77-19.07,2.43-18.48,15.11,0,0,0,30,0,30h-15.22v-60.22h15.22v9.35c1.96-3.19,4.51-5.69,7.66-7.5Z"/>
    <path class="cls-1" d="m763.57,463.46h-44.02c-.12,14.22,20.65,19.39,26.52,6.63h16.41c-4.68,18.07-28.18,25.01-43.75,16.03-14.9-7.76-18.32-29.66-10.81-43.64,16.73-28.51,62.53-12.97,55.65,20.98Zm-15.33-10.22c-.15-17.06-27.69-17.03-28.59,0h28.59Z"/>
    <path class="cls-1" d="m825.85,434.71c10.81,8.97,5.42,41.69,6.63,54.29h-15.22v-33.26c.09-8.89-4.57-14.88-13.37-14.89-8.87,0-13.67,5.92-13.59,14.89,0,0,0,33.26,0,33.26h-15.22v-60.22h15.22v7.5c7.95-10.72,26.86-11.01,35.54-1.58Z"/>
    <path class="cls-1" d="m858.03,486.12c-33.95-22.37-5.73-73.4,31.85-54.45,34.72,22.21,5.52,73.46-31.85,54.45Zm23.42-11.41c19.19-12.42,1.34-46.53-18.48-29.02-11.45,12.74.01,39.06,18.48,29.02Z"/>
  </g>
  <path class="cls-2" d="m411.31,404.12c-.56.97-.56,2.13-.01,3.11l35.83,62.05-3.9,6.77-43.04-74.55c-2.04,4.3-7.97,10.68-4.53,15.66,2.15,3.7,44.05,76.32,44.88,77.72,1.09,2.04,4.27,2.04,5.37,0,0,0,36.17-62.68,36.17-62.68h7.8l-38.24,66.24c4.73-.36,13.23,1.58,15.81-3.9,0,0,40.07-69.43,40.07-69.43,1.24-1.94-.35-4.73-2.66-4.65,0,0-72.36,0-72.36,0l-3.55-6.14h81.26c-2.65-3.92-5.27-12.25-11.27-11.74,0,0-84.96,0-84.96,0-1.12,0-2.11.57-2.68,1.54Zm42.6,53.42l-14.63-25.33h29.25s-14.62,25.33-14.62,25.33Z"/>
</svg>